<?xml version="1.0" encoding="UTF-8" standalone="no"?>
<svg
   version="1.1"
   width="512"
   height="512"
   id="svg322"
   sodipodi:docname="logo.svg"
   inkscape:version="1.2.2 (b0a8486541, 2022-12-01)"
   inkscape:export-filename="logo.png"
   inkscape:export-xdpi="96"
   inkscape:export-ydpi="96"
   xmlns:inkscape="http://www.inkscape.org/namespaces/inkscape"
   xmlns:sodipodi="http://sodipodi.sourceforge.net/DTD/sodipodi-0.dtd"
   xmlns="http://www.w3.org/2000/svg"
   xmlns:svg="http://www.w3.org/2000/svg"
   xmlns:rdf="http://www.w3.org/1999/02/22-rdf-syntax-ns#"
   xmlns:cc="http://creativecommons.org/ns#">
  <defs
     id="defs326">
    <marker
       markerWidth="512"
       markerHeight="512"
       refX="256"
       refY="256"
       orient="auto"
       id="marker11007">
      <path
         d="M 0,0 H 512 V 512 H 0 Z"
         fill="#fbfdfc"
         id="path246" />
    </marker>
  </defs>
  <sodipodi:namedview
     id="namedview324"
     pagecolor="#ffffff"
     bordercolor="#666666"
     borderopacity="1.0"
     inkscape:showpageshadow="2"
     inkscape:pageopacity="1"
     inkscape:pagecheckerboard="0"
     inkscape:deskcolor="#d1d1d1"
     showgrid="false"
     inkscape:zoom="2.2304247"
     inkscape:cx="32.280848"
     inkscape:cy="129.79591"
     inkscape:window-width="3840"
     inkscape:window-height="2090"
     inkscape:window-x="0"
     inkscape:window-y="0"
     inkscape:window-maximized="1"
     inkscape:current-layer="svg322" />
  <path
     d="M0,0 L4,2 L18,10 L27,18 L30,26 L30,34 L27,46 L23,60 L17,73 L8,94 L3,105 L3,116 L7,119 L13,121 L39,126 L55,131 L64,137 L68,142 L70,146 L70,154 L66,162 L57,170 L45,176 L37,179 L20,182 L11,183 L-17,184 L-24,192 L-34,206 L-47,221 L-59,232 L-73,241 L-85,246 L-93,248 L-113,248 L-127,245 L-132,243 L-132,241 L-123,235 L-113,226 L-105,218 L-96,205 L-88,189 L-82,168 L-80,136 L-72,125 L-54,98 L-38,71 L-23,44 L-13,25 L-5,9 Z "
     fill="#517ED0"
     transform="translate(435,104)"
     id="path248" />
  <path
     d="M0,0 L10,1 L19,6 L31,17 L40,26 L49,37 L57,48 L67,62 L75,74 L91,75 L107,78 L127,85 L141,93 L153,105 L160,115 L167,130 L170,139 L171,149 L162,146 L155,143 L138,139 L110,139 L93,143 L87,146 L80,146 L71,144 L57,142 L22,140 L-23,140 L-45,141 L-65,143 L-74,143 L-81,135 L-83,129 L-83,117 L-79,109 L-73,102 L-63,95 L-46,87 L-28,82 L-11,79 L14,79 L11,71 L-2,48 L-10,34 L-14,23 L-14,13 L-11,7 L-5,2 Z "
     fill="#517DD0"
     transform="translate(132,13)"
     id="path250" />
  <path
     d="M0,0 L11,2 L20,5 L29,7 L55,7 L72,4 L80,2 L104,7 L126,9 L142,10 L234,10 L240,14 L245,20 L246,24 L246,33 L241,43 L234,50 L221,58 L205,65 L183,70 L162,73 L151,73 L159,87 L174,112 L179,122 L180,125 L180,136 L175,145 L167,150 L153,150 L143,143 L130,130 L117,113 L107,99 L95,80 L90,76 L71,74 L50,69 L34,62 L23,54 L15,46 L8,34 L2,17 L0,7 Z "
     fill="#4DB0CE"
     transform="translate(213,350)"
     id="path252" />
  <path
     d="M0,0 L2,0 L7,17 L12,30 L21,45 L31,57 L39,64 L46,71 L47,73 L49,89 L54,107 L60,122 L72,147 L83,167 L99,191 L113,212 L117,220 L117,234 L114,240 L111,243 L80,243 L63,231 L50,219 L38,207 L31,199 L30,196 L27,196 L25,200 L11,215 L2,224 L-9,230 L-13,231 L-21,231 L-27,227 L-32,221 L-36,210 L-36,203 L-28,186 L-22,174 L-17,159 L-13,141 L-12,131 L-12,99 L-16,64 L-18,49 L-18,34 L-15,24 L-8,11 Z "
     fill="#517ED0"
     transform="translate(158,269)"
     id="path256" />
  <path
     d="M0,0 L12,1 L28,8 L40,16 L50,24 L65,37 L75,48 L77,51 L79,51 L89,37 L98,27 L107,18 L117,14 L126,14 L134,19 L139,25 L142,32 L142,40 L137,54 L128,74 L123,88 L118,109 L117,117 L117,147 L121,169 L124,181 L124,200 L120,211 L111,225 L106,229 L100,214 L92,199 L80,183 L70,173 L64,168 L62,153 L57,139 L49,123 L34,97 L21,75 L6,53 L-6,36 L-12,26 L-13,23 L-13,11 L-9,5 L-4,1 Z "
     fill="#4EB0CF"
     transform="translate(246,0)"
     id="path258" />
  <path
     d="M0,0 L6,0 L6,2 L11,1 L22,1 L32,6 L41,8 L53,8 L60,16 L62,17 L61,22 L56,28 L54,33 L54,43 L58,45 L58,48 L52,47 L46,42 L46,40 L30,45 L24,53 L24,61 L25,62 L31,62 L35,58 L39,59 L41,62 L43,71 L44,72 L50,72 L53,80 L53,82 L61,80 L65,78 L70,78 L72,80 L82,79 L92,84 L103,95 L106,98 L108,99 L117,100 L123,105 L123,114 L118,128 L110,142 L99,156 L88,165 L77,173 L60,180 L55,180 L56,176 L65,170 L67,166 L67,151 L72,144 L73,141 L73,134 L69,129 L65,127 L55,126 L47,116 L45,112 L45,102 L49,97 L55,94 L55,87 L49,83 L44,78 L34,72 L18,64 L11,58 L4,42 L0,35 L1,26 L2,19 L-2,16 L-8,13 L-9,12 L-9,6 L-6,2 Z "
     fill="#4D99CF"
     transform="translate(223,166)"
     id="path260" />
  <path
     d="M0,0 L9,0 L20,8 L36,14 L44,17 L46,20 L46,27 L42,33 L42,44 L47,49 L46,52 L39,52 L25,46 L15,37 L6,27 L0,17 L-3,10 L-2,2 Z "
     fill="#4FABD1"
     transform="translate(176,284)"
     id="path262"
     style="fill:#4d99cf;fill-opacity:1" />
  <path
     d="M0,0 L14,0 L23,1 L29,5 L30,6 L30,11 L25,10 L24,9 L24,4 L-1,4 Z "
     fill="#438ED7"
     transform="translate(247,157)"
     id="path266" />
  <path
     id="path268"
     transform="translate(203,179)"
     d="m 0,0 3,1 1,8 h 8 v 4 l -2,1 H 2 L -2,9 V 2 Z"
     style="fill:#4d99cf;fill-opacity:1" />
  <path
     id="path288"
     transform="translate(278,222)"
     d="M 0,0 6,1 7,4 9,5 H 2 L -1,3 Z m 0,0 6,1 6,2 8,1 V 7 H 7 L 0,4 Z"
     style="fill:#4d99cf;fill-opacity:1" />
  <path
     d="M0,0 L3,1 L-7,8 L-9,8 L-9,6 L-5,5 L-4,2 Z "
     fill="#6184C5"
     transform="translate(371,336)"
     id="path304"
     style="fill:#517ed0;fill-opacity:1" />
  <path
     id="path314"
     style="fill:#4eb0cf;fill-opacity:1"
     transform="translate(113,201)"
     d="M 0,0 H 2 L 0,4 -2.8602037,5.4301018 -4,6 V 8 L -6,7 Z m 48,-40 h 25 l 14,3 4,2 -1,3 -10,8 -10,11 -9,14 -7,14 -5,17 -2,11 -1,15 -8,10 -12,21 -11,19 -6,10 -11,19 -12,22 -11,21 -9,20 -5,1 -10,-5 -8,-4 -4,-6 -1,-3 v -18 l 6,-26 5,-13 5,-12 6,-13 2,-5 v -6 l -5,-3 -29,-4 -18,-6 -10,-6 -5,-5 -2,-4 V 50 l 7,-8 10,-7 18,-6 10,-2 10,-1 18.016033,-0.600534 L -22,25 l 5,-5 8,-9 7,-9 8,-10 9,-10 9,-9 10,-7 8,-4 z" />
  <metadata
     id="metadata148">
    <rdf:RDF>
      <cc:Work
         rdf:about="">
        <cc:license
           rdf:resource="http://creativecommons.org/publicdomain/zero/1.0/" />
      </cc:Work>
      <cc:License
         rdf:about="http://creativecommons.org/publicdomain/zero/1.0/">
        <cc:permits
           rdf:resource="http://creativecommons.org/ns#Reproduction" />
        <cc:permits
           rdf:resource="http://creativecommons.org/ns#Distribution" />
        <cc:permits
           rdf:resource="http://creativecommons.org/ns#DerivativeWorks" />
      </cc:License>
    </rdf:RDF>
  </metadata>
</svg>
